<svg width="14" height="19" viewBox="0 0 14 19" fill="none" xmlns="http://www.w3.org/2000/svg">
<path d="M0.0297852 3.9248C0.0297852 3.46094 0.0989583 3.02148 0.237305 2.60645C0.383789 2.18327 0.595378 1.81299 0.87207 1.49561C1.14062 1.17822 1.47835 0.930013 1.88525 0.750977C2.29215 0.563802 2.76009 0.470215 3.28906 0.470215C3.82617 0.470215 4.29818 0.563802 4.70508 0.750977C5.12012 0.930013 5.46598 1.17822 5.74268 1.49561C6.01123 1.81299 6.21468 2.18327 6.35303 2.60645C6.49951 3.02148 6.57275 3.46094 6.57275 3.9248V4.86475C6.57275 5.32861 6.49951 5.76807 6.35303 6.18311C6.21468 6.59814 6.01123 6.96029 5.74268 7.26953C5.46598 7.58691 5.12419 7.83919 4.71729 8.02637C4.31038 8.2054 3.84245 8.29492 3.31348 8.29492C2.78451 8.29492 2.3125 8.2054 1.89746 8.02637C1.49056 7.83919 1.14876 7.58691 0.87207 7.26953C0.595378 6.96029 0.383789 6.59814 0.237305 6.18311C0.0989583 5.76807 0.0297852 5.32861 0.0297852 4.86475V3.9248ZM1.71436 4.86475C1.71436 5.11702 1.74284 5.36117 1.7998 5.59717C1.85677 5.82503 1.95036 6.02848 2.08057 6.20752C2.21077 6.39469 2.37354 6.54525 2.56885 6.65918C2.7723 6.76497 3.02051 6.81787 3.31348 6.81787C3.59831 6.81787 3.83838 6.76497 4.03369 6.65918C4.23714 6.54525 4.3999 6.39469 4.52197 6.20752C4.64404 6.02848 4.73356 5.82503 4.79053 5.59717C4.85563 5.36117 4.88818 5.11702 4.88818 4.86475V3.9248C4.88818 3.67253 4.85563 3.42839 4.79053 3.19238C4.73356 2.94824 4.64404 2.73258 4.52197 2.54541C4.39176 2.36637 4.22493 2.22396 4.02148 2.11816C3.82617 2.00423 3.58203 1.94727 3.28906 1.94727C3.00423 1.94727 2.76009 2.00423 2.55664 2.11816C2.36133 2.22396 2.20264 2.36637 2.08057 2.54541C1.95036 2.73258 1.85677 2.94824 1.7998 3.19238C1.74284 3.42839 1.71436 3.67253 1.71436 3.9248V4.86475ZM7.36621 14.374C7.36621 13.9102 7.43538 13.4707 7.57373 13.0557C7.72021 12.6406 7.9318 12.2744 8.2085 11.957C8.48519 11.6396 8.82699 11.3914 9.23389 11.2124C9.64079 11.0252 10.1087 10.9316 10.6377 10.9316C11.1748 10.9316 11.6468 11.0252 12.0537 11.2124C12.4606 11.3914 12.8024 11.6396 13.0791 11.957C13.3558 12.2744 13.5633 12.6406 13.7017 13.0557C13.8481 13.4707 13.9214 13.9102 13.9214 14.374V15.3262C13.9214 15.79 13.8481 16.2295 13.7017 16.6445C13.5633 17.0596 13.3558 17.4217 13.0791 17.731C12.8024 18.0483 12.4606 18.3006 12.0537 18.4878C11.6549 18.6668 11.1911 18.7563 10.6621 18.7563C10.125 18.7563 9.64893 18.6668 9.23389 18.4878C8.82699 18.3006 8.48519 18.0483 8.2085 17.731C7.9318 17.4217 7.72021 17.0596 7.57373 16.6445C7.43538 16.2295 7.36621 15.79 7.36621 15.3262V14.374ZM9.05078 15.3262C9.05078 15.5785 9.07926 15.8226 9.13623 16.0586C9.20133 16.2946 9.29899 16.5021 9.4292 16.6812C9.55127 16.8683 9.71403 17.0189 9.91748 17.1328C10.1209 17.2386 10.3691 17.2915 10.6621 17.2915C10.9469 17.2915 11.187 17.2386 11.3823 17.1328C11.5858 17.0189 11.7485 16.8683 11.8706 16.6812C11.9927 16.5021 12.0822 16.2946 12.1392 16.0586C12.1961 15.8226 12.2246 15.5785 12.2246 15.3262V14.374C12.2246 14.1217 12.1961 13.8776 12.1392 13.6416C12.0822 13.4056 11.9927 13.194 11.8706 13.0068C11.7404 12.8278 11.5736 12.6854 11.3701 12.5796C11.1667 12.4657 10.9225 12.4087 10.6377 12.4087C10.3447 12.4087 10.0965 12.4657 9.89307 12.5796C9.69775 12.6854 9.53906 12.8278 9.41699 13.0068C9.28678 13.194 9.1932 13.4056 9.13623 13.6416C9.07926 13.8776 9.05078 14.1217 9.05078 14.374V15.3262ZM4.35107 16.2051L2.99609 15.4482L9.91748 2.78955L11.2725 3.54639L4.35107 16.2051Z" fill="white"/>
</svg>
