<svg width="16" height="15" viewBox="0 0 16 15" fill="none" xmlns="http://www.w3.org/2000/svg">
<path d="M15.7812 7.28125H0.1875V6.46875H15.7812V7.28125ZM7.3125 1.14062C7.3125 0.911458 7.39583 0.708333 7.5625 0.53125C7.73958 0.354167 7.94271 0.265625 8.17188 0.265625C8.40104 0.265625 8.60417 0.354167 8.78125 0.53125C8.95833 0.708333 9.04688 0.911458 9.04688 1.14062C9.04688 1.36979 8.95833 1.57292 8.78125 1.75C8.60417 1.91667 8.40104 2 8.17188 2C7.94271 2 7.73958 1.91667 7.5625 1.75C7.39583 1.57292 7.3125 1.36979 7.3125 1.14062ZM7.3125 13.2969C7.3125 13.0677 7.39583 12.8646 7.5625 12.6875C7.73958 12.5104 7.94271 12.4219 8.17188 12.4219C8.40104 12.4219 8.60417 12.5104 8.78125 12.6875C8.95833 12.8646 9.04688 13.0677 9.04688 13.2969C9.04688 13.526 8.95833 13.7292 8.78125 13.9062C8.60417 14.0729 8.40104 14.1562 8.17188 14.1562C7.94271 14.1562 7.73958 14.0729 7.5625 13.9062C7.39583 13.7292 7.3125 13.526 7.3125 13.2969Z" fill="white"/>
</svg>
