<svg width="14" height="19" viewBox="0 0 14 19" fill="none" xmlns="http://www.w3.org/2000/svg">
<path d="M13.1279 13.1533C13.0221 13.9753 12.8105 14.7321 12.4932 15.4238C12.1758 16.1074 11.7648 16.6934 11.2603 17.1816C10.7476 17.6781 10.1413 18.0646 9.44141 18.3413C8.74967 18.6099 7.97656 18.7441 7.12207 18.7441C6.38965 18.7441 5.72233 18.6424 5.12012 18.439C4.52604 18.2274 3.99707 17.9385 3.5332 17.5723C3.0612 17.2061 2.6543 16.7747 2.3125 16.2783C1.97884 15.7819 1.70215 15.2407 1.48242 14.6548C1.25456 14.0688 1.08366 13.4544 0.969727 12.8115C0.863932 12.1686 0.806966 11.5176 0.798828 10.8584V8.38037C0.806966 7.72119 0.863932 7.07015 0.969727 6.42725C1.08366 5.78434 1.25456 5.16992 1.48242 4.58398C1.70215 3.99805 1.97884 3.45687 2.3125 2.96045C2.6543 2.45589 3.0612 2.02051 3.5332 1.6543C3.99707 1.28809 4.52604 1.00326 5.12012 0.799805C5.71419 0.588216 6.38151 0.482422 7.12207 0.482422C8.00911 0.482422 8.80257 0.620768 9.50244 0.897461C10.2023 1.16602 10.8045 1.5485 11.3091 2.04492C11.8136 2.54948 12.2165 3.15169 12.5176 3.85156C12.8268 4.55143 13.0303 5.32454 13.1279 6.1709H10.8696C10.7964 5.63379 10.6702 5.1333 10.4912 4.66943C10.3122 4.20557 10.0721 3.79867 9.771 3.44873C9.46989 3.0988 9.09961 2.82617 8.66016 2.63086C8.22884 2.42741 7.71615 2.32568 7.12207 2.32568C6.58496 2.32568 6.10889 2.4152 5.69385 2.59424C5.28695 2.76514 4.93701 3.00114 4.64404 3.30225C4.34294 3.60335 4.09066 3.95329 3.88721 4.35205C3.69189 4.75081 3.5332 5.17399 3.41113 5.62158C3.28906 6.06917 3.19954 6.52897 3.14258 7.00098C3.09375 7.46484 3.06934 7.9165 3.06934 8.35596V10.8584C3.06934 11.2979 3.09375 11.7536 3.14258 12.2256C3.19954 12.6895 3.28906 13.1452 3.41113 13.5928C3.5332 14.0485 3.69189 14.4757 3.88721 14.8745C4.08252 15.2733 4.33073 15.6232 4.63184 15.9243C4.93294 16.2336 5.28695 16.4777 5.69385 16.6567C6.10075 16.8276 6.57682 16.9131 7.12207 16.9131C7.71615 16.9131 8.22884 16.8195 8.66016 16.6323C9.09961 16.4451 9.46989 16.1807 9.771 15.8389C10.0721 15.5052 10.3122 15.1105 10.4912 14.6548C10.6702 14.1909 10.7964 13.6904 10.8696 13.1533H13.1279Z" fill="white"/>
</svg>
